<svg xmlns="http://www.w3.org/2000/svg" version="1.1" xmlns:xlink="http://www.w3.org/1999/xlink" width="1000" height="1000"><g clip-path="url(#SvgjsClipPath1133)"><rect width="1000" height="1000" fill="#ffffff"></rect><g transform="matrix(0.68359375,0,0,0.68359375,150,150)"><svg xmlns="http://www.w3.org/2000/svg" viewBox="0 0 1024 1024" width="1024" height="1024"><defs>
    <filter id="crisp-shadow" x="-20%" y="-20%" width="140%" height="140%">
      <feDropShadow dx="0" dy="40" stdDeviation="30" flood-color="#000000" flood-opacity="0.25"></feDropShadow>
    </filter>
  <clipPath id="SvgjsClipPath1133"><rect width="1000" height="1000" x="0" y="0" rx="350" ry="350"></rect></clipPath></defs><rect width="1024" height="1024" fill="#FFFFFF"></rect><g transform="rotate(-45, 512, 512)">
    <rect x="-102" y="235" width="921" height="553" rx="61" fill="#F43F5E" filter="url(#crisp-shadow)"></rect>
    <rect x="-102" y="112" width="921" height="553" rx="61" fill="#EC4899" filter="url(#crisp-shadow)"></rect>
    <rect x="-102" y="-10" width="921" height="553" rx="61" fill="#A855F7" filter="url(#crisp-shadow)"></rect>
    <rect x="-102" y="-133" width="921" height="553" rx="61" fill="#6366F1" filter="url(#crisp-shadow)"></rect>
    <g filter="url(#crisp-shadow)">
      <rect x="-102" y="-256" width="921" height="553" rx="61" fill="#2563EB"></rect>
      <rect x="20" y="-153" width="122" height="92" rx="20" fill="#FACC15"></rect>
      <line x1="20" y1="-107" x2="142" y2="-107" stroke="#CA8A04" stroke-width="5"></line>
      <text font-family="system-ui, -apple-system, 'Segoe UI', sans-serif" font-weight="700" x="368" y="163" fill="#FFFFFF" font-size="163" letter-spacing="-3">todo</text>
    </g>
  </g></svg></g></g></svg>